<?xml version="1.0" encoding="utf-8"?>
<!-- Generator: Adobe Illustrator 16.0.0, SVG Export Plug-In . SVG Version: 6.00 Build 0)  -->
<!DOCTYPE svg PUBLIC "-//W3C//DTD SVG 1.1//EN" "http://www.w3.org/Graphics/SVG/1.1/DTD/svg11.dtd">
<svg version="1.1" id="Calque_1" xmlns="http://www.w3.org/2000/svg" xmlns:xlink="http://www.w3.org/1999/xlink" x="0px" y="0px"
	 width="100px" height="100px" viewBox="0 0 595.28 841.89" enable-background="new 0 0 595.28 841.89" xml:space="preserve">
<g>
	<path fill-rule="evenodd" clip-rule="evenodd" fill="#982C29" d="M397.475,232.671c0.149-7.552,0.722-15.144,0.373-22.693
		c-1.791-39.362-28.546-75.856-65.847-88.498c-45.299-15.35-85.362-5.142-119.687,27.464
		c-18.105,17.195-29.016,38.613-32.614,63.456c-4.155,28.689,3.626,54.093,21.853,76.399c16.231,19.872,37.432,31.438,62.272,36.802
		c1.708,0.37,3.393,0.851,5.089,1.281c-0.016,0.248-0.031,0.5-0.042,0.747c-1.467,0-2.947,0.149-4.392-0.023
		c-27.12-3.231-50.126-14.816-68.399-35.032c-15.149-16.764-23.35-36.712-24.707-59.425c-1.68-28.148,6.79-53.035,24.386-74.723
		c20.961-25.833,48.164-41.565,81.151-45.695c35.045-4.387,66.393,5.005,92.091,29.858c18.566,17.957,28.397,40.248,29.964,66.128
		C399.458,216.82,398.806,224.794,397.475,232.671z"/>
</g>
<path fill-rule="evenodd" clip-rule="evenodd" fill="#982C29" d="M313.83,336.715c7.774,0.172,15.44,1.349,22.858,3.697
	c18.113,5.733,34.286,14.864,47.455,28.718c15.508,16.325,24.965,35.738,26.78,58.241c3.514,43.531-14.736,77.046-49.302,102.19
	c-21.557,15.675-45.97,23.715-72.789,23.105c-29.258-0.672-54.953-10.67-75.862-31.425c-17.598-17.466-27.205-38.874-29.229-63.621
	c-0.682-8.357-0.301-16.658,1.673-24.872c-0.179,2.563-0.365,5.117-0.544,7.68c-1.816,26.326,5.161,50.054,21.607,70.697
	c18.219,22.856,42.368,35.51,71.258,38.071c35.573,3.152,66.439-8.238,92.082-33.122c16.956-16.459,27.999-36.331,32.358-59.68
	c5.64-30.225-1.76-57.148-21.147-80.812c-13.139-16.037-29.628-27.242-49.557-33.2c-5.384-1.612-10.853-2.958-16.276-4.438
	c-0.501-0.137-0.98-0.342-1.472-0.518C313.761,337.191,313.795,336.955,313.83,336.715z"/>
<g>
	<path fill-rule="evenodd" clip-rule="evenodd" fill="#982C29" d="M384.616,226.03c-1.523-7.02-2.344-14.281-4.676-21.02
		c-11.771-33.918-35.672-54.28-70.892-60.462c-24.573-4.318-47.146,1.606-66.19,18.019c-14.762,12.721-23.058,29.24-24.457,48.781
		c-0.491,6.873,0.305,13.842,0.551,20.768c0.053,1.435,0.827,3.395-1.271,3.634c-1.818,0.209-3.896-0.497-4.139-2.869
		c-0.588-5.752-1.659-11.55-1.373-17.271c0.515-10.374,3.079-20.402,7.956-29.673c12.74-24.234,32.869-38.882,59.623-43.408
		c31.122-5.269,58.178,4.172,80.369,26.367c15.289,15.29,23.571,34.11,24.374,55.947c0.012,0.428-0.075,0.859-0.118,1.289
		C384.454,226.097,384.535,226.064,384.616,226.03z"/>
</g>
<g>
	<path fill-rule="evenodd" clip-rule="evenodd" fill="#982C29" d="M201.351,442.486c0.903,8.295,2.591,16.396,5.611,24.2
		c7.273,18.828,19.838,33.185,37.028,43.525c13.339,8.021,27.795,12.273,43.444,12.771c20.837,0.658,39.629-5.037,55.426-18.579
		c18.016-15.452,25.956-35.561,24.613-59.275c-0.168-2.897-0.722-5.77-0.79-8.661c-0.031-1.182,0.728-2.388,1.132-3.588
		c1.399,0.877,3.688,1.492,4.035,2.68c1.039,3.545,1.778,7.313,1.797,11c0.031,8.145-0.933,16.197-3.525,24.025
		c-7.069,21.346-21.24,36.344-41.149,46.149c-15.588,7.685-32.157,10.116-49.3,7.784c-23.381-3.177-43.14-13.405-58.663-31.369
		c-10.766-12.46-17.326-26.842-19.435-43.208c-0.084-0.646-0.205-1.299-0.216-1.952
		C201.331,446.155,201.351,444.321,201.351,442.486z"/>
</g>
<rect x="162.845" y="611.083" fill-rule="evenodd" clip-rule="evenodd" fill="none" width="297.133" height="44.016"/>
<text transform="matrix(1 0 0 1 179.9863 654.29)" fill="#982C29" font-family="'Saudagar'" font-size="57.3038">ShareTable</text>
</svg>
